<?xml version="1.0" encoding="UTF-8"?>
<!DOCTYPE svg PUBLIC "-//W3C//DTD SVG 1.1//EN" "http://www.w3.org/Graphics/SVG/1.1/DTD/svg11.dtd">
<svg xmlns="http://www.w3.org/2000/svg" xml:space="preserve" width="600px" height="600px" version="1.1" style="shape-rendering:geometricPrecision; text-rendering:geometricPrecision; image-rendering:optimizeQuality; fill-rule:evenodd; clip-rule:evenodd"
viewBox="0 0 600 600"
 xmlns:xlink="http://www.w3.org/1999/xlink">
 <defs>
  <style type="text/css">
   <![CDATA[
    .fil0 {fill:#572269}
    .fil1 {fill:#F3F3EB}
    .fil2 {fill:white;fill-rule:nonzero}
   ]]>
  </style>
 </defs>
 <g id="Layer_x0020_1">
  <metadata id="Wiki-Layer"/>
  <g id="_1323652838048">
   <polygon class="fil0" points="300,0 314.89,15.78 331.36,1.64 344.52,18.9 362.37,6.56 373.66,25.09 392.7,14.68 402,34.29 422.02,25.94 429.21,46.41 450,40.19 455.01,61.31 476.34,57.29 479.11,78.82 500.74,77.06 501.25,98.75 522.94,99.26 521.18,120.89 542.71,123.66 538.69,144.99 559.81,150 553.59,170.79 574.06,177.98 565.71,198 585.32,207.3 574.91,226.34 593.44,237.63 581.1,255.48 598.36,268.64 584.22,285.11 600,300 584.22,314.89 598.36,331.36 581.1,344.52 593.44,362.37 574.91,373.66 585.32,392.7 565.71,402 574.06,422.02 553.59,429.21 559.81,450 538.69,455.01 542.71,476.34 521.18,479.11 522.94,500.74 501.25,501.25 500.74,522.94 479.11,521.18 476.34,542.71 455.01,538.69 450,559.81 429.21,553.59 422.02,574.06 402,565.71 392.7,585.32 373.66,574.91 362.37,593.44 344.52,581.1 331.36,598.36 314.89,584.22 300,600 285.11,584.22 268.64,598.36 255.48,581.1 237.63,593.44 226.34,574.91 207.3,585.32 198,565.71 177.98,574.06 170.79,553.59 150,559.81 144.99,538.69 123.66,542.71 120.89,521.18 99.26,522.94 98.75,501.25 77.06,500.74 78.82,479.11 57.29,476.34 61.31,455.01 40.19,450 46.41,429.21 25.94,422.02 34.29,402 14.68,392.7 25.09,373.66 6.56,362.37 18.9,344.52 1.64,331.36 15.78,314.89 0,300 15.78,285.11 1.64,268.64 18.9,255.48 6.56,237.63 25.09,226.34 14.68,207.3 34.29,198 25.94,177.98 46.41,170.79 40.19,150 61.31,144.99 57.29,123.66 78.82,120.89 77.06,99.26 98.75,98.75 99.26,77.06 120.89,78.82 123.66,57.29 144.99,61.31 150,40.19 170.79,46.41 177.98,25.94 198,34.29 207.3,14.68 226.34,25.09 237.63,6.56 255.48,18.9 268.64,1.64 285.11,15.78 "/>
   <path class="fil1" d="M36.5 300c0,-145.53 117.97,-263.5 263.5,-263.5 145.53,0 263.5,117.97 263.5,263.5 0,145.53 -117.97,263.5 -263.5,263.5 -145.53,0 -263.5,-117.97 -263.5,-263.5zm263.5 -271c-149.67,0 -271,121.33 -271,271 0,149.67 121.33,271 271,271 149.67,0 271,-121.33 271,-271 0,-149.67 -121.33,-271 -271,-271z"/>
   <path class="fil1" d="M300 539.65c-132.36,0 -239.65,-107.29 -239.65,-239.65 0,-132.36 107.29,-239.65 239.65,-239.65 132.36,0 239.65,107.29 239.65,239.65 0,132.36 -107.29,239.65 -239.65,239.65zm0 -495.55c-141.33,0 -255.9,114.57 -255.9,255.9 0,141.33 114.57,255.9 255.9,255.9 141.33,0 255.9,-114.57 255.9,-255.9 0,-141.33 -114.57,-255.9 -255.9,-255.9z"/>
   <path class="fil2" d="M449.96 398.85c-1.67,2.82 -2.8,4.41 -3.41,4.74 -10.09,1.9 -65.91,12.11 -80.57,15.64 -4.48,1.53 -6.82,2.89 -7.01,4.1 -0.19,1.2 2.49,3.22 8.04,6.05 0.51,0.26 0.6,1.47 0.27,3.64 -0.29,1.87 -0.55,2.95 -0.78,3.26 -0.24,0.3 -0.9,0.24 -2.01,-0.17 -7.07,-2.51 -10.32,-5.63 -9.74,-9.36 0.32,-2.11 1.75,-4.67 4.28,-7.67 2.52,-3 5.01,-5.02 7.45,-6.06 2.18,-0.96 8.99,-2.53 20.42,-4.71 6.09,-1.15 55.62,-9.78 61.71,-10.87 1.15,-0.26 1.8,-0.31 1.97,-0.16 0.09,0.2 -0.12,0.72 -0.62,1.57z"/>
   <path class="fil2" d="M151.59 447.79c0.42,-2.6 1.34,-5.74 2.76,-9.4 1.1,-2.87 1.66,-5.72 1.66,-8.55 0,-5.38 -2.49,-10.57 -7.46,-15.53 -0.38,-0.39 -0.44,-0.8 -0.17,-1.26l1.72 -3.04c0.16,-0.27 0.4,-0.27 0.75,0 4.97,4.09 7.45,9.95 7.45,17.6 0,3.67 -0.8,7.55 -2.41,11.66 -1.6,4.11 -2.4,6.95 -2.4,8.52 0,3.17 0.86,4.76 2.58,4.76 0.99,0 2.12,-1.21 3.38,-3.62 0.11,-0.22 0.23,-0.4 0.34,-0.51 0.12,-0.08 0.17,-0.06 0.17,0.06 0.04,0.11 0.04,0.3 0,0.57 -1.03,5.62 -2.71,8.43 -5.04,8.43 -2.37,0 -3.56,-2.3 -3.56,-6.88 0,-0.92 0.08,-1.86 0.23,-2.81z"/>
   <path class="fil2" d="M115.23 419.67c-0.38,0.92 -0.72,1.38 -1.03,1.38 -0.38,0 -0.44,-0.6 -0.17,-1.78 0.23,-1.03 0.34,-2.37 0.34,-4.01 0,-5.35 -3.02,-10.69 -9.06,-16 -0.38,-0.34 -0.43,-0.76 -0.17,-1.26l1.72 -3.04c0.16,-0.27 0.4,-0.27 0.75,0 5.92,4.4 8.89,10.4 8.89,18 0,2.37 -0.43,4.61 -1.27,6.71z"/>
   <path class="fil2" d="M210.2 433.59c0,0.5 -0.13,1.15 -0.4,1.95 -0.34,1.07 -0.74,1.61 -1.2,1.61 -0.19,0 -0.61,-0.41 -1.26,-1.23 -0.65,-0.83 -1.32,-1.24 -2.01,-1.24 -1.53,0 -2.94,3.61 -4.24,10.84 -0.58,3.13 -1.21,5.35 -1.89,6.65 -0.5,0.88 -0.92,1.32 -1.26,1.32 -0.31,0 -0.46,-0.4 -0.46,-1.21 0,-1.26 -0.73,-3.71 -2.18,-7.37 -1.46,-3.64 -2.49,-5.47 -3.1,-5.47 -0.42,0 -0.69,0.13 -0.8,0.4 -0.12,0.27 -0.46,0.4 -1.03,0.4 -0.65,0 -1.5,-0.48 -2.55,-1.43 -1.06,-0.96 -1.58,-1.72 -1.58,-2.29 0,-0.27 0.44,-1.14 1.32,-2.61 0.88,-1.47 1.43,-2.21 1.66,-2.21 2.14,0 4.06,1.27 5.76,3.81 1.7,2.55 2.9,5.86 3.58,9.95 0.08,0.42 0.12,0.67 0.12,0.74 0.08,0.12 0.13,0.12 0.17,0 0.04,-0.07 0.14,-0.32 0.29,-0.74 0.34,-2.45 1.18,-6.1 2.52,-10.95 1.45,-3.48 3.04,-5.22 4.76,-5.22 0.88,0 1.76,0.6 2.64,1.78 0.76,1.03 1.14,1.87 1.14,2.52zm-12.38 21.67c-1.34,3.02 -3.94,5.97 -7.8,8.83 -3.47,2.56 -6.66,4.49 -9.57,5.79 -0.61,0.31 -3.98,1.59 -10.09,3.84 -0.96,0.35 -1.61,0.52 -1.95,0.52 -0.15,0 -0.23,-0.04 -0.23,-0.11 0,-0.23 0.55,-0.69 1.66,-1.38 5.05,-2.83 12.2,-7.28 21.44,-13.36 2.33,-1.8 4.07,-3.4 5.22,-4.81 1.49,-1.8 2.33,-2.7 2.53,-2.7 0.03,0 0.05,0.04 0.05,0.11 0,0.27 -0.42,1.36 -1.26,3.27z"/>
   <path class="fil2" d="M278.04 503.13c-0.65,2.76 -2.59,4.83 -5.79,6.25 -3.21,1.41 -6.56,1.71 -10.05,0.87 -0.64,-0.15 -1.41,-0.47 -2.34,-0.97 -0.92,-0.49 -1.62,-0.8 -2.11,-0.91 -3.67,-0.88 -7.84,0.01 -12.48,2.67 -3.42,2.13 -6.85,4.24 -10.29,6.33 -1.98,0.86 -3.86,1.33 -5.65,1.42 -2.19,0.1 -3.43,0.12 -3.72,0.05 -0.08,-0.02 -0.11,-0.05 -0.1,-0.08 0.02,-0.11 0.91,-0.45 2.66,-1.02 1.63,-0.43 4.23,-1.44 7.79,-3.03 1.83,-1.09 4.51,-2.93 8.04,-5.5 2.47,-1.81 4.98,-3.26 7.52,-4.34 2.92,-1.23 5.46,-1.74 7.62,-1.54 -0.27,-0.02 1.02,0.31 3.88,0.99 2.08,-1.27 4.16,-2.52 6.26,-3.75 2.7,-1.44 4.78,-1.98 6.23,-1.64 2.23,0.54 3.07,1.94 2.53,4.2zm-2.21 1.13c-0.14,-1.06 -1.07,-1.79 -2.78,-2.2 -1.71,-0.41 -4.65,0.64 -8.82,3.14 0.35,0.16 0.75,0.29 1.2,0.4 1.78,0.43 3.84,0.45 6.17,0.06 2.16,-0.31 3.57,-0.78 4.23,-1.4z"/>
   <path class="fil2" d="M418.54 497.88c-3.82,3.44 -8.73,5.16 -14.73,5.16 -1.88,0 -3.41,-0.49 -4.59,-1.46 -1.18,-0.98 -1.77,-2.21 -1.77,-3.7 0,-2.64 1.1,-5.27 3.32,-7.91 2.18,-2.33 4.38,-4.66 6.59,-6.99 0.46,-0.5 0.33,-0.88 -0.4,-1.15 -1.64,-0.57 -3.4,-0.86 -5.27,-0.86 -1.04,0 -2.16,0.29 -3.39,0.86 -0.26,0.11 -0.44,0.13 -0.51,0.06 -0.08,-0.08 -0.06,-0.27 0.06,-0.58 0.76,-1.83 1.54,-3.05 2.35,-3.67 0.95,-0.76 2.42,-1.14 4.41,-1.14 4.47,0 6.71,1.09 6.71,3.26 0,1.65 -1.43,3.98 -4.3,7 -2.03,2.06 -4.05,4.15 -6.08,6.25 -0.88,1.15 -1.32,2.12 -1.32,2.92 0,1.84 2.07,2.76 6.19,2.76 3.79,0 7.88,-0.66 12.27,-1.95 1.23,-0.35 1.84,-0.44 1.84,-0.29 0,0.15 -0.46,0.63 -1.38,1.43z"/>
   <path class="fil2" d="M246.42 451.26c-6.38,0.76 -13.51,4.55 -19.89,11.57 -4.86,6.1 -9.72,12.2 -14.58,18.3 -4.58,5.4 -8.46,9.25 -11.64,11.54 -2.16,1.58 -6.31,3.81 -12.44,6.68 -5.3,2.47 -8.71,3.8 -10.23,3.98 -0.51,0.06 -0.78,-0.02 -0.8,-0.23 -0.07,-0.59 1.37,-2.05 4.33,-4.39 4.98,-3.9 7.6,-5.98 7.86,-6.23 4.22,-3.45 7.84,-6.75 10.84,-9.91 3.01,-3.15 7.89,-9.07 14.65,-17.75 6.01,-7.64 10.76,-13.1 14.27,-16.39 5.29,-4.9 11.25,-7.45 16.33,-8.05 3.95,-0.48 8.05,0.27 12.29,2.22 3.23,1.71 6.44,3.43 9.67,5.14 5.37,-11.39 9.16,-18.76 11.37,-22.11 5.83,-9.01 12,-13.91 18.49,-14.68 5.66,-0.68 11.07,1.04 16.23,5.17 4.36,3.49 6.71,6.69 7.06,9.59 0.12,1.05 -0.19,3.26 -0.92,6.62 -0.82,3.63 -1.68,6.14 -2.58,7.53 -2.01,3.15 -5.79,6.64 -11.33,10.47 -7.98,5.51 -16.45,8.81 -25.41,9.88 -3.37,0.4 -7.6,-0.05 -12.69,-1.35 -0.64,2.28 -0.85,4.38 -0.62,6.31 0.47,3.95 2.74,6.6 6.8,7.95 15.83,5.36 36.09,6.28 61,3.3 17.01,-2.04 39.06,-7.91 66.15,-17.63 18.23,-6.56 32.66,-12.37 43.27,-17.43l-24.56 -3.73c-2.28,-0.32 -3.78,-0.42 -4.5,-0.29 -0.58,0.1 -1.06,0.48 -1.46,1.14 -0.4,0.65 -1.23,0.98 -2.48,0.98 -4.23,0.33 -8.87,0.59 -13.92,0.79 -1.2,-0.15 -1.83,-0.5 -1.89,-1.05 -0.04,-0.29 0.09,-0.8 0.37,-1.53l2.69 -7.44c0.39,-1.08 1.01,-1.72 1.87,-1.94 6.13,-1.61 11.06,-2.53 14.79,-2.76 14.49,2.17 25.19,3.63 32.08,4.39 15.09,1.61 27.87,2.18 38.34,1.7 2.01,-0.09 3.04,0.09 3.1,0.57 0.01,0.14 -0.03,0.37 -0.14,0.68l-2.97 7.97c-0.3,0.84 -0.74,1.3 -1.32,1.37 0.04,-0.01 -1.45,0.1 -4.46,0.31 -3.01,0.21 -5.82,0.47 -8.43,0.79 -9.79,1.17 -17.78,3.12 -23.97,5.84 -50.2,22.2 -87.49,34.75 -111.86,37.67 -14.25,1.7 -26.57,2.13 -36.93,1.27 -7.24,-0.57 -14.98,-1.75 -23.47,-4.08 -6.31,-1.75 -9.95,-6.65 -10.92,-14.7 -0.45,-3.81 -0.23,-7.62 0.68,-11.45 -4.63,-2.64 -7.46,-4.2 -8.51,-4.66 -3.58,-1.64 -6.78,-2.28 -9.61,-1.94zm70.4 -19.85c-0.15,-1.27 -2.4,-3.19 -6.75,-5.76 -5.15,-3.06 -10.03,-4.31 -14.63,-3.76 -9.43,1.13 -17.8,10.07 -25.1,26.84 3.91,0.74 7.52,0.92 10.82,0.52 5.66,-0.68 11.54,-2.43 17.64,-5.25 4.77,-2.23 9.11,-4.81 13.03,-7.74 3.41,-2.54 5.08,-4.16 4.99,-4.85z"/>
   <path class="fil2" d="M464.29 380.2c-19.58,5.29 -43.57,9.85 -71.96,13.68 -38.61,5.29 -77.37,7.94 -116.28,7.94 -17.94,0 -43.32,-0.98 -76.15,-2.92 -35.21,-2.13 -55.21,-4.14 -60.01,-6.02 -14.47,-5.66 -29.86,-12.68 -46.15,-21.07 -7.05,-3.65 -10.58,-5.92 -10.58,-6.84 0,-0.42 0.58,-0.64 1.73,-0.64 1.89,0 5.5,0.58 10.85,1.74 6.63,1.46 13.26,2.91 19.89,4.37 12.7,2.5 25.78,4.5 39.21,6.02 22.38,2.5 37.82,4.05 46.33,4.65 22.8,1.65 50.28,2.47 82.45,2.47 54.72,0 105.64,-4.35 152.76,-13.05 11,-2 23.71,-5.04 38.12,-9.12 11.43,-3.22 19.34,-4.95 23.71,-5.19 1.1,-0.06 2.13,-0.09 3.1,-0.09 9.25,0 13.87,2.06 13.87,6.2 0,8.2 -5.23,18.81 -15.69,31.83 -4.5,5.1 -10.25,12.34 -17.24,21.7 -2.49,4.26 -4.1,6.39 -4.83,6.39 -0.25,-0.06 -0.37,-0.28 -0.37,-0.64 0,-1.22 0.86,-4.02 2.56,-8.39 2.55,-6.69 7.69,-14.38 15.41,-23.08 6.75,-7.66 10.12,-12.37 10.12,-14.13 0,-1.52 -3.1,-2.28 -9.3,-2.28 -4.99,0 -15.5,2.15 -31.55,6.47z"/>
   <path class="fil2" d="M247.38 421.69c-0.21,-0.15 -0.21,-0.46 0,-0.92l4.91 -10.08c0.31,-0.61 0.65,-0.92 1.01,-0.92 0.51,0 2.71,1.33 6.61,4 3.89,2.66 5.84,4.23 5.84,4.69 0,1.74 -1.72,5.38 -5.15,10.92 -0.41,0.71 -0.85,0.9 -1.31,0.54 -3.84,-2.93 -7.81,-5.67 -11.91,-8.23z"/>
   <g>
    <path class="fil2" d="M309.49 148.57c-1,0.14 -1.58,0.2 -1.72,0.18 -0.03,-0.01 -0.05,-0.02 -0.05,-0.04 0.01,-0.05 0.41,-0.24 1.19,-0.57 0.74,-0.27 1.9,-0.85 3.48,-1.73 0.82,-0.59 1.99,-1.56 3.51,-2.89 1.05,-0.92 2.14,-1.69 3.26,-2.29 1.38,-0.73 2.7,-1 3.97,-0.82 0.29,0.04 0.68,0.19 1.14,0.42 0.47,0.24 0.88,0.39 1.23,0.44 0.65,0.09 1.21,-0.08 1.69,-0.51 0.38,-0.44 0.77,-0.89 1.16,-1.33 0.28,-0.32 0.5,-0.46 0.68,-0.44 0.09,0.02 0.12,0.1 0.1,0.26 -0.04,0.23 -0.2,0.59 -0.48,1.08 -0.15,0.25 0.45,0.47 1.78,0.67 0.14,0.02 0.22,-0.01 0.25,-0.07 0.02,-0.04 -0.01,-0.38 -0.09,-1.04 -0.03,-0.18 0.09,-0.42 0.35,-0.73 0.44,-0.54 0.69,-0.77 0.75,-0.69 0.26,0.36 0.35,0.87 0.26,1.51 -0.08,0.55 -0.3,1.16 -0.66,1.84 -0.36,0.68 -0.67,1.09 -0.92,1.21 -0.65,0.32 -1.57,0.08 -2.74,-0.72 -1.21,0.95 -2.33,1.35 -3.35,1.2 -0.29,-0.05 -0.66,-0.18 -1.11,-0.41 -0.44,-0.22 -0.77,-0.35 -1,-0.39 -1.73,-0.25 -3.62,0.32 -5.65,1.7 -1.48,1.09 -2.98,2.18 -4.48,3.27 -0.88,0.48 -1.73,0.78 -2.55,0.89z"/>
    <path class="fil2" d="M270.04 82.94c0,0.34 -0.43,1.1 -1.28,2.29 -0.96,1.34 -1.87,2.31 -2.74,2.94 -0.55,0.38 -2.4,0.99 -5.53,1.82 -0.46,0.12 -0.72,0.17 -0.81,0.17l0 -0.04c0.07,-0.08 0.26,-0.23 0.55,-0.46 0.41,-0.31 1.52,-0.94 3.34,-1.9 1.75,-0.93 2.78,-1.53 3.07,-1.79 0.06,-0.05 0.08,-0.1 0.08,-0.15 0,-0.42 -1.55,-0.63 -4.66,-0.63 -0.01,0 -0.61,0.03 -1.79,0.08 -0.25,0.01 -0.45,0.01 -0.59,0l0 -0.68 1.06 -1.78c0.32,-0.55 0.91,-0.89 1.77,-1.03 0.31,-0.06 1.03,-0.08 2.15,-0.08 3.59,0 5.38,0.41 5.38,1.24z"/>
    <path class="fil2" d="M397.76 141.57c-0.42,1.25 -1.04,2.67 -1.88,4.26 -3.17,2.65 -5.78,4.54 -7.81,5.68 -3.55,2 -7.09,3 -10.64,3 -1.81,0 -3.17,-0.19 -4.09,-0.57l-1.12 -5.59c-2.16,-2.75 -3.24,-5.39 -3.24,-7.93 0,-3.99 1.22,-7.06 3.66,-9.21 2.09,-1.83 4.69,-2.74 7.78,-2.74 4.11,0 7.78,1.35 11.01,4.06 0.54,0.45 0.81,0.75 0.81,0.92 0,0.11 -0.1,0.17 -0.31,0.17 -0.26,0 -0.67,-0.1 -1.23,-0.31 -2.17,-0.78 -4.09,-1.17 -5.77,-1.17 -2.46,0 -4.99,0.36 -7.57,1.1 -2.59,0.74 -4.48,1.64 -5.67,2.7 0,2.65 0.92,5.27 2.77,7.84 2.26,3.14 5.14,4.71 8.65,4.71 1.81,0 4.17,-0.83 7.09,-2.5 2.37,-1.36 4.56,-2.92 6.57,-4.67 0.42,-0.36 0.71,-0.54 0.9,-0.56 0.3,0 0.33,0.27 0.09,0.81z"/>
    <path class="fil2" d="M240.38 166.67c-2.05,0 -3.79,-1.61 -5.2,-4.82 -1.27,-2.82 -1.91,-5.77 -1.91,-8.85 0,-3.69 0.37,-6.64 1.09,-8.84 0.26,-0.79 0.47,-1.18 0.62,-1.18 0.24,0 0.3,0.5 0.17,1.49 -0.3,2.31 -0.45,4.3 -0.45,5.96 0,7.8 1.82,11.7 5.46,11.7 1.47,0 2.81,-1.14 4,-3.41 1.27,-2.73 2.53,-5.46 3.78,-8.18 1.12,-2.26 2.46,-4.16 4.03,-5.71 1.66,-1.64 3.17,-2.46 4.51,-2.46 1.29,0 2.69,1.4 4.2,4.22 1.42,2.63 2.76,4.25 4.03,4.85 1.62,0.76 4.51,1.44 8.38,2.04 4.94,0.75 10.65,1.12 17.13,1.12 10.26,0 20.88,-1.15 31.86,-3.44 11.14,-2.36 20.03,-5.35 26.68,-8.99 0.31,-0.17 0.53,-0.23 0.64,-0.2 0.13,0.06 0.17,0.26 0.11,0.62 -0.11,0.84 -0.16,1.58 -0.16,2.21 0,3.06 1.32,4.59 3.97,4.59 3.66,0 6.33,-1.11 7.81,-3.32 1.08,-1.6 1.62,-4.34 1.62,-8.2 0,-10.88 -0.46,-20.09 -1.4,-27.63 -0.45,-3.64 -1.01,-7.24 -1.71,-10.81 0.38,-2.35 0.73,-3.97 1.07,-4.87 0.15,-0.39 0.28,-0.59 0.39,-0.59 0.13,0 0.26,0.21 0.39,0.62 1.23,3.97 2.23,9.02 3,15.14 0.39,3.12 0.69,7.84 0.89,14.17 0.21,6.4 0.45,10.78 0.73,13.13 0.51,4.14 1.39,6.84 2.66,8.09 1.46,1.44 3,2.54 4.62,3.3l0 5.6c-2.43,-0.99 -4.29,-2.05 -5.6,-3.19 -2.03,-1.71 -3.38,-3.94 -4.03,-6.66 -0.32,4.09 -1.8,7.06 -4.45,8.93 -1.76,1.25 -3.82,1.89 -5.99,1.89 -1.75,0 -3.2,-0.62 -4.34,-1.85 -1.23,-1.32 -1.9,-3.18 -2.01,-5.57 -7.62,3.85 -16.76,6.94 -27.41,9.27 -10.27,2.24 -19.97,3.36 -29.12,3.36 -11.92,0 -20.6,-1.06 -25.73,-3.17 -1.66,-0.69 -3.1,-1.83 -4.31,-3.44 -0.13,-0.17 -0.92,-1.45 -2.38,-3.86 -0.73,-1.23 -1.44,-1.85 -2.13,-1.85 -2.09,0 -4.29,1.77 -6.61,5.32 -0.41,0.64 -1.14,2.28 -2.21,4.94 -1.06,2.66 -1.98,4.59 -2.77,5.78 -1.23,1.83 -2.54,2.75 -3.92,2.75z"/>
    <path class="fil2" d="M351.52 90.11c0,-1.79 -0.28,-3.27 -0.84,-4.42 0,-0.66 0.53,-2.21 1.57,-4.65 0.13,-0.3 0.24,-0.45 0.34,-0.45 0.11,0 0.24,0.16 0.39,0.47 0.3,0.64 0.99,2.39 2.07,5.27 1.14,2.98 1.8,4.82 1.99,5.51 0.15,0.53 0.22,0.92 0.22,1.18 0,0.82 -0.79,0.33 -2.38,-1.48 -0.18,-0.27 -0.28,-0.15 -0.28,0.33 0,0.17 0.41,5.91 1.23,17.22 0.83,11.31 1.24,17.67 1.24,19.09 0,4.35 -0.67,8.18 -1.99,11.48 -0.28,0.67 -0.5,1.16 -0.67,1.46l0 0c-0.26,0.44 -0.42,0.51 -0.48,0.19 -0.07,-0.33 -0.05,-1.04 0.09,-2.13 0.16,-1.49 0.25,-3.22 0.25,-5.2 0,-1.79 -0.46,-9.17 -1.37,-22.12 -0.92,-12.95 -1.38,-20.2 -1.38,-21.75z"/>
    <path class="fil2" d="M280.77 126.64c-0.42,3.51 -0.69,5.26 -0.84,5.26 -0.15,0 -0.43,-1.44 -0.84,-4.31 -0.71,-4.59 -4.11,-9.82 -10.19,-15.68 -7.47,-7.09 -12.92,-12.76 -16.35,-17.02 -0.9,-1.23 -2.09,-2.93 -3.59,-5.09 -0.48,-0.71 -0.99,-1.22 -1.51,-1.52 -0.3,-0.18 -0.45,-0.48 -0.45,-0.89l0 -3.75c0,-0.75 0.13,-1.12 0.39,-1.12 0.19,0 0.53,0.18 1.01,0.56l7.11 5.43c0.53,0.41 0.79,0.73 0.79,0.95 0,0.15 -0.21,0.22 -0.62,0.22 -0.59,0 -1.58,-0.15 -2.97,-0.44 1.16,1.56 3.98,4.62 8.46,9.18 3.25,3.25 6.49,6.47 9.74,9.69 6.61,6.71 9.91,12.46 9.91,17.24 0,0.45 -0.02,0.88 -0.05,1.29zm31.27 3.19c2.27,0 4.46,-0.83 6.55,-2.49 0.18,-0.15 1.04,-1.04 2.57,-2.66 1.42,-1.51 2.19,-2.27 2.3,-2.27 0.33,0 0.39,0.34 0.17,1.01 -0.3,0.88 -0.45,1.44 -0.45,1.71 0,0.63 0.27,1.36 0.81,2.18 0.71,1.08 1.64,1.62 2.8,1.62 3.06,0 5.68,-2.2 7.87,-6.6 0.22,-0.45 0.48,-0.68 0.78,-0.68 0.24,0 0.36,0.21 0.36,0.62 0,0.15 -0.02,0.39 -0.07,0.73 -0.04,0.33 -0.07,0.59 -0.07,0.75 0,1.29 0.4,2.34 1.2,3.14 0.79,0.8 1.8,1.2 3.03,1.2 1.79,0 3.68,-0.69 5.36,-2.07 0.48,-0.41 0.73,-1.91 0.73,-4.48 0,-1.57 -0.41,-7.87 -1.21,-18.9 -0.8,-11.03 -1.2,-17.53 -1.2,-19.51 0,-1.79 -0.28,-3.27 -0.84,-4.42 0,-0.64 0.52,-2.19 1.57,-4.65 0.11,-0.3 0.22,-0.45 0.33,-0.45 0.11,0 0.24,0.17 0.39,0.51 0.3,0.63 0.99,2.38 2.08,5.26 1.11,2.98 1.79,4.81 2.01,5.48 0.11,0.57 0.17,0.96 0.17,1.18 0,0.82 -0.79,0.34 -2.35,-1.45 -0.19,-0.27 -0.28,-0.15 -0.28,0.33 0,0.11 0.35,5.02 1.06,14.73 0.71,9.7 1.06,15.49 1.06,17.35 0,5.42 -0.96,9.67 -2.91,12.77 -1.64,2.61 -3.73,3.92 -5.97,3.92 -2.82,0 -4.83,-1.78 -6.05,-5.34 -0.14,-0.47 -0.31,-0.47 -0.5,0 -1.6,4.12 -3.87,6.18 -6.8,6.18 -2.99,0 -4.76,-1.88 -5.32,-5.65 -0.04,-0.32 -0.09,-0.48 -0.14,-0.48 -0.06,0.04 -0.17,0.2 -0.34,0.48 -0.71,1.17 -1.76,2.38 -3.16,3.61 -2.22,1.98 -4.42,2.97 -6.61,2.97 -2.42,0 -4.11,-0.73 -5.07,-2.19 -0.57,-0.91 -0.9,-2.27 -0.97,-4.06 -0.02,-0.2 -0.12,-0.31 -0.28,-0.31 -0.3,0 -0.6,0.18 -0.9,0.54 -1.87,2.16 -3.07,3.48 -3.61,3.95 -2.37,2.03 -4.95,3.05 -7.56,3.05 -2.8,0 -4.82,-1.09 -6.05,-3.25 -0.82,-1.42 -1.38,-3.72 -1.68,-6.89 -1.04,5.08 -2.05,8.31 -3.02,9.69 -2.2,3.17 -4.74,5.41 -7.62,6.72 -1.11,0.48 -3.04,1.08 -5.76,1.79 -2.73,0.71 -4.72,1.14 -5.99,1.29 -0.53,0.03 -0.79,-0.02 -0.79,-0.17 0,-0.15 0.25,-0.37 0.73,-0.67 2.54,-1.46 6.59,-3.89 12.15,-7.28 6.27,-4.11 9.41,-10.14 9.41,-18.09 0,-10.34 -0.49,-19.35 -1.46,-27.04 -0.26,-2.54 -0.78,-6.14 -1.57,-10.81 0.41,-2.68 0.73,-4.31 0.96,-4.87 0.14,-0.41 0.28,-0.62 0.39,-0.62 0.11,0 0.24,0.21 0.39,0.62 1.23,4 2.22,9.05 2.97,15.18 0.52,4.1 0.89,10.48 1.12,19.14 0.22,7.81 0.52,12.64 0.89,14.51 0.45,2.12 1.14,3.58 2.07,4.36 0.68,0.53 1.63,0.79 2.86,0.79 2.74,0 5.23,-0.72 7.28,-2.16 0.82,-0.58 2.68,-2.31 5.57,-5.21 0.35,-0.35 0.69,-0.53 1.01,-0.53 0.5,0 0.64,0.34 0.42,1.01 -0.23,0.67 -0.34,1.3 -0.34,1.88 0,1.28 0.53,2.28 1.6,2.99 1.01,0.67 2.31,1.01 3.92,1.01z"/>
    <path class="fil2" d="M263.58 124.37c0,-0.45 -0.87,-1.04 -2.61,-1.77 -1.73,-0.72 -3.01,-1.01 -3.83,-0.86 -0.3,0.07 -0.41,0.18 -0.34,0.33 0.3,0.82 0.93,2.18 1.91,4.09 2.53,-0.82 4.16,-1.42 4.87,-1.79zm-21.62 11.08c5.12,-4.03 10.03,-6.83 14.73,-8.4 -0.34,-0.56 -0.82,-1.49 -1.46,-2.8 -0.29,-0.63 -0.44,-1.4 -0.44,-2.29 0,-1.46 0.37,-2.69 1.11,-3.7 0.86,-1.23 2.15,-1.84 3.87,-1.84 1.34,0 3.27,0.87 5.76,2.63 2.65,1.79 3.98,3.28 3.98,4.48 -0.37,1.56 -0.84,3.04 -1.4,4.42 -2.13,0.63 -4.7,1.44 -7.73,2.41 0.12,1.71 -0.05,2.57 -0.5,2.57 -0.34,0 -0.69,-0.65 -1.06,-1.96 -1.38,0.49 -3.31,1.31 -5.77,2.47 -3.58,1.64 -6.29,3.19 -8.12,4.64 -2.8,2.21 -5.64,4.88 -8.51,8.01 -3.29,3.62 -5.19,5.66 -5.71,6.1 -1.79,1.61 -3.55,2.41 -5.26,2.41 -1.87,0 -3.51,-0.85 -4.93,-2.55 -1.42,-1.69 -2.13,-3.79 -2.13,-6.29 0,-3.48 1.42,-7.97 4.26,-13.5 0.29,-0.56 0.54,-0.84 0.72,-0.84 0.08,0 0.12,0.08 0.12,0.23 0,0.56 -0.62,2.49 -1.85,5.79 -1.23,3.3 -1.85,5.93 -1.85,7.87 0,1.45 0.35,2.64 1.06,3.55 0.71,0.92 1.72,1.37 3.03,1.37 1.79,0 3.75,-0.87 5.88,-2.63 1.12,-0.93 3.04,-2.91 5.76,-5.93 2.62,-2.88 4.76,-4.95 6.44,-6.22z"/>
    <path class="fil2" d="M306.54 168.1l1.43 -2.94c0.11,-0.22 0.23,-0.34 0.36,-0.34 0.19,0 0.99,0.49 2.41,1.46 1.42,0.97 2.13,1.54 2.13,1.71 0,0.63 -0.63,1.96 -1.88,3.97 -0.15,0.25 -0.31,0.31 -0.47,0.2 -1.24,-0.92 -2.63,-1.88 -4.18,-2.88 -0.52,1.17 -1.03,2.17 -1.54,2.99 -0.14,0.26 -0.3,0.33 -0.47,0.2 -1.4,-1.07 -2.85,-2.07 -4.34,-3 -0.07,-0.05 -0.07,-0.17 0,-0.33l1.79 -3.67c0.11,-0.23 0.23,-0.34 0.37,-0.34 0.16,0 0.85,0.4 2.04,1.21 1.19,0.8 1.98,1.39 2.35,1.76z"/>
    <path class="fil2" d="M292.5 100.26c14.41,-5.35 29.47,-10.93 45.18,-16.74 0.61,-0.23 0.97,-0.31 1.08,-0.23 0.16,0.11 0.12,0.44 -0.11,0.97 -0.69,1.68 -1.24,2.7 -1.66,3.04 -13.01,4.79 -28.25,10.71 -45.72,17.77l0 -2.02c0.34,-0.9 0.75,-1.82 1.23,-2.79z"/>
    <path class="fil2" d="M269.63 94.88c14.41,-5.35 29.47,-10.93 45.18,-16.74 0.61,-0.23 0.97,-0.31 1.08,-0.23 0.16,0.11 0.12,0.44 -0.11,0.97 -0.69,1.68 -1.24,2.7 -1.66,3.04 -13.01,4.79 -28.25,10.71 -45.72,17.77l0 -2.02c0.34,-0.9 0.75,-1.82 1.23,-2.79z"/>
    <path class="fil2" d="M241.09 174.66c8.26,-3.07 16.89,-6.27 25.89,-9.6 0.35,-0.13 0.56,-0.17 0.62,-0.13 0.09,0.07 0.07,0.25 -0.06,0.56 -0.4,0.96 -0.72,1.54 -0.96,1.74 -7.45,2.74 -16.18,6.14 -26.19,10.18l0 -1.16c0.19,-0.51 0.42,-1.04 0.7,-1.59z"/>
    <path class="fil2" d="M318.52 105.63c0,0.7 -0.15,1.44 -0.46,2.2 -0.42,0.97 -0.95,1.46 -1.6,1.46 -1.03,0 -1.77,-0.7 -2.2,-2.12 -0.49,1.81 -1.39,2.72 -2.69,2.72 -0.49,0 -0.91,-0.24 -1.28,-0.73 -0.41,-0.58 -0.62,-1.34 -0.62,-2.29l0 -2.22c0,-0.18 -0.12,-0.31 -0.37,-0.38 -0.24,-0.07 -0.36,-0.26 -0.36,-0.57 0,-0.49 0.2,-0.97 0.62,-1.44 0.38,-0.42 0.67,-0.63 0.87,-0.63 0.25,0 0.38,0.49 0.38,1.47 0,0.51 -0.04,0.93 -0.12,1.28 -0.08,0.34 -0.12,0.64 -0.12,0.89 0,0.53 0.1,1.04 0.32,1.52 0.25,0.57 0.57,0.85 0.95,0.85 0.49,0 0.95,-0.23 1.37,-0.67 0.43,-0.44 0.64,-0.96 0.64,-1.56 0,-0.35 -0.1,-0.93 -0.3,-1.77 -0.2,-0.83 -0.3,-1.34 -0.3,-1.54 0,-0.19 0.09,-0.47 0.27,-0.86 0.19,-0.39 0.32,-0.58 0.41,-0.58 0.17,0 0.38,0.55 0.64,1.65 0.26,1.11 0.39,1.92 0.39,2.45 0,1.52 0.59,2.28 1.77,2.28 0.51,0 0.82,-0.26 0.95,-0.76 -1.01,-1.78 -1.52,-3.13 -1.52,-4.08 0,-0.54 0.13,-1.02 0.41,-1.44 0.18,-0.28 0.3,-0.44 0.38,-0.46 0.07,0 0.12,0.18 0.16,0.55 0.05,0.5 0.14,0.92 0.24,1.25 0.02,0.03 0.27,0.66 0.74,1.87 0.29,0.72 0.43,1.28 0.43,1.66z"/>
    <path class="fil2" d="M242.43 111.45c0.29,-0.92 0.35,-1.84 0.19,-2.77 -0.19,-1.01 -0.65,-1.52 -1.38,-1.52 -0.35,0 -0.83,0.16 -1.43,0.5 -0.6,0.33 -0.91,0.66 -0.91,0.98 0,0.73 1.18,1.66 3.53,2.81zm-1.81 4.1c-2.96,-1.53 -4.43,-3.13 -4.43,-4.82 0,-2.03 0.93,-3.89 2.81,-5.58 1.87,-1.68 3.43,-2.3 4.67,-1.85 1.05,0.38 1.57,1.51 1.57,3.38 0,1.68 -0.35,3.58 -1.04,5.67 1.49,0.86 2.43,1.59 2.81,2.2 0,0.79 -0.67,2.14 -2,4.05 -0.39,-0.6 -1.29,-1.34 -2.72,-2.19 -1.65,2.29 -3.75,4.37 -6.3,6.24 -2.89,2.13 -5.54,3.74 -7.96,4.82 -0.51,0.25 -3.3,1.32 -8.39,3.19 -0.79,0.29 -1.32,0.43 -1.57,0.43 -0.13,0 -0.19,-0.03 -0.19,-0.09 0,-0.19 0.44,-0.57 1.33,-1.15 3.75,-2.22 7.52,-4.46 11.3,-6.72 4.51,-2.73 7.88,-5.26 10.11,-7.58z"/>
    <path class="fil2" d="M373.67 122.48c1.37,0 2.84,-0.23 4.43,-0.7 0.44,-0.12 0.66,-0.16 0.66,-0.1 0,0.05 -0.16,0.23 -0.5,0.51 -1.37,1.25 -3.15,1.87 -5.31,1.87 -0.68,0 -1.23,-0.18 -1.66,-0.53 -0.42,-0.35 -0.64,-0.8 -0.64,-1.34 0,-1.43 0.62,-2.93 1.84,-4.5 -1.07,-0.32 -1.61,-0.89 -1.61,-1.7 0,-0.69 0.43,-1.52 1.29,-2.48 0.86,-0.97 1.56,-1.45 2.08,-1.45 0.14,0 0.28,0.11 0.43,0.33 0.14,0.22 0.21,0.45 0.21,0.7 0,0.11 -0.14,0.37 -0.43,0.79 -0.29,0.41 -0.45,0.58 -0.48,0.5 -0.11,-0.43 -0.35,-0.65 -0.72,-0.65 -0.19,0 -0.43,0.17 -0.71,0.5 -0.29,0.33 -0.43,0.61 -0.43,0.83 0.35,0.56 0.93,0.85 1.76,0.85 0.28,0 0.71,-0.26 1.3,-0.77 0.35,-0.32 0.7,-0.64 1.06,-0.97 0.12,-0.1 0.18,0 0.18,0.29 0,0.63 -0.23,1.27 -0.7,1.92 -1.82,1.23 -3.17,2.64 -4.05,4.24 -0.17,0.31 -0.25,0.57 -0.25,0.81 0,0.7 0.75,1.05 2.25,1.05z"/>
   </g>
   <path class="fil2" d="M409.94 120.53c-0.25,1.16 -0.55,1.78 -0.91,1.85 -0.45,0.08 -0.65,-0.6 -0.6,-2.05 0.04,-1.27 -0.12,-2.87 -0.49,-4.8 -1.19,-6.29 -5.93,-11.88 -14.21,-16.78 -0.53,-0.32 -0.69,-0.8 -0.48,-1.45l1.34 -3.95c0.12,-0.35 0.41,-0.41 0.88,-0.17 7.94,3.85 12.76,10.24 14.46,19.18 0.52,2.79 0.53,5.51 0.01,8.17z"/>
   <path class="fil2" d="M199.22 132.74c0,4.38 -1.8,9.36 -5.41,14.95 -3.69,5.85 -8.46,10.82 -14.31,14.95 -1.18,0.83 -2.12,1.45 -2.81,1.86l0 -1.58c0.42,-0.48 0.93,-1.05 1.53,-1.7 9.62,-10.48 14.43,-17.48 14.43,-21 0,-3.36 -1.54,-5.03 -4.64,-5.03 -1.72,0 -3.27,0.47 -4.64,1.42 -1.03,0.68 -1.67,1.07 -1.93,1.16 -0.17,-0.18 -0.39,-0.3 -0.65,-0.39 0.09,-0.34 0.26,-1.24 0.52,-2.71 1.55,-7.21 5.16,-10.82 10.83,-10.82 4.72,0 7.08,2.96 7.08,8.89z"/>
   <path class="fil2" d="M348 463.02c-0.38,0.92 -0.72,1.38 -1.03,1.38 -0.38,0 -0.44,-0.59 -0.17,-1.78 0.23,-1.03 0.34,-2.37 0.34,-4.01 0,-5.35 -3.02,-10.69 -9.06,-16 -0.38,-0.34 -0.43,-0.76 -0.17,-1.26l1.72 -3.04c0.16,-0.26 0.4,-0.26 0.75,0 5.92,4.4 8.88,10.4 8.88,18 0,2.38 -0.42,4.61 -1.26,6.71z"/>
   <path class="fil2" d="M320.23 498.49c2.45,0 4.64,1.45 6.58,4.35 1.95,2.91 3.31,6.7 4.1,11.37 0.09,0.48 0.13,0.77 0.13,0.85 0.09,0.14 0.15,0.14 0.2,0 0.04,-0.08 0.15,-0.37 0.32,-0.85 0.4,-2.79 1.36,-6.96 2.89,-12.51 1.66,-3.98 3.47,-5.96 5.43,-5.96 1.01,0 2.01,0.67 3.02,2.03 0.87,1.18 1.31,2.14 1.31,2.88 0,0.57 -0.15,1.31 -0.46,2.23 -0.39,1.22 -0.85,1.83 -1.38,1.83 -0.22,0 -0.7,-0.47 -1.44,-1.41 -0.74,-0.93 -1.5,-1.4 -2.29,-1.4 -1.75,0 -3.36,4.12 -4.85,12.38 -0.65,3.58 -1.37,6.11 -2.16,7.6 -0.57,1 -1.05,1.5 -1.44,1.5 -0.35,0 -0.53,-0.45 -0.53,-1.37 0,-1.44 -0.83,-4.25 -2.49,-8.42 -1.65,-4.17 -2.83,-6.26 -3.53,-6.26 -0.48,0 -0.79,0.16 -0.92,0.46 -0.13,0.31 -0.52,0.46 -1.18,0.46 -0.74,0 -1.72,-0.54 -2.92,-1.64 -1.2,-1.09 -1.8,-1.96 -1.8,-2.62 0,-0.3 0.51,-1.3 1.51,-2.98 1,-1.68 1.64,-2.52 1.9,-2.52z"/>
   <path class="fil2" d="M156.88 151.63c0.08,0.55 0.04,1.29 -0.12,2.22 -0.2,1.24 -0.56,1.9 -1.06,1.98 -0.21,0.03 -0.75,-0.36 -1.6,-1.16 -0.86,-0.8 -1.67,-1.14 -2.43,-1.03 -1.69,0.26 -2.65,4.49 -2.89,12.69 -0.11,3.56 -0.44,6.12 -0.98,7.67 -0.41,1.06 -0.8,1.61 -1.18,1.67 -0.34,0.05 -0.57,-0.37 -0.71,-1.26 -0.21,-1.39 -1.42,-3.99 -3.63,-7.78 -2.21,-3.8 -3.66,-5.64 -4.34,-5.54 -0.46,0.07 -0.73,0.26 -0.82,0.57 -0.08,0.32 -0.44,0.53 -1.07,0.62 -0.76,0.12 -1.87,-0.29 -3.33,-1.22 -1.46,-0.92 -2.08,-1.66 -1.86,-2.21 1.37,-3.84 2.21,-5.78 2.5,-5.83 2.37,-0.35 4.7,0.73 7.01,3.26 2.3,2.53 4.17,6 5.61,10.41 0.16,0.45 0.24,0.72 0.25,0.8 0.11,0.12 0.17,0.11 0.19,-0.03 0.03,-0.09 0.1,-0.38 0.2,-0.87 -0.03,-2.76 0.29,-6.94 0.97,-12.53 1.03,-4.09 2.49,-6.27 4.39,-6.56 0.98,-0.14 2.05,0.37 3.21,1.53 1.02,1.01 1.58,1.88 1.69,2.6zm-55.04 36.47l-0.14 -0.89c0.25,-0.24 0.56,-0.52 0.95,-0.85 5.15,-3.97 12.31,-10.08 21.49,-18.33 3.66,-3.84 5.9,-6.9 6.72,-9.18 0.31,-0.87 0.58,-1.32 0.84,-1.36 0.09,0.03 0.14,0.11 0.16,0.23 0.1,0.64 -0.3,2.19 -1.18,4.65 -1.46,4.07 -3.85,7.76 -7.15,11.07 -3.43,3.4 -6.63,6.07 -9.63,7.99 -0.59,0.39 -4.1,2.36 -10.52,5.92 -0.64,0.35 -1.16,0.6 -1.54,0.75z"/>
   <path class="fil2" d="M215.4 361.29l4.23 -8.72c0.33,-0.66 0.69,-0.99 1.08,-0.99 0.55,0 2.93,1.43 7.13,4.31 4.21,2.88 6.31,4.57 6.31,5.06 0,1.88 -1.85,5.81 -5.56,11.79 -0.44,0.72 -0.91,0.91 -1.41,0.58 -3.65,-2.71 -7.77,-5.56 -12.37,-8.55 -1.54,3.49 -3.07,6.45 -4.56,8.88 -0.44,0.78 -0.91,0.97 -1.41,0.58 -4.15,-3.15 -8.44,-6.11 -12.86,-8.88 -0.23,-0.16 -0.23,-0.49 0,-0.99l5.31 -10.87c0.33,-0.67 0.69,-1 1.08,-1 0.49,0 2.51,1.19 6.05,3.57 3.55,2.38 5.87,4.12 6.98,5.23z"/>
   <path class="fil2" d="M463.32 295.81l-0.59 0.23c0,2.82 -0.63,6.31 -1.89,10.48 -1.75,5.54 -4.18,10.05 -7.28,13.54 -6.11,6.99 -16.94,14.9 -32.46,23.73 -13.69,7.77 -21.74,11.65 -24.17,11.65 -0.58,0 -7.62,1.65 -21.11,4.95 -14.36,3.49 -23.34,5.53 -26.93,6.11 -3.88,0.59 -6.26,0.88 -7.13,0.88 -0.39,0 -0.63,-0.05 -0.73,-0.15 0,-0.39 2.67,-1.74 8.01,-4.08 1.84,-0.87 12.9,-5.62 33.19,-14.26 13.97,-6.02 25.67,-11.5 35.08,-16.45 26.59,-14.37 39.89,-24.46 39.89,-30.28 0,-1.65 -0.34,-3.3 -1.02,-4.95 -2.91,0.97 -7.04,1.45 -12.37,1.45 -11.46,0 -17.18,-3.88 -17.18,-11.64 0,-6.02 1.94,-11.31 5.82,-15.87 3.59,-4.27 7.33,-6.4 11.21,-6.4 3.11,0 6.41,1.89 9.9,5.67 3.1,3.3 5.87,7.52 8.3,12.67 0.18,0 0.67,-0.13 1.46,-0.39 13.58,-5.59 21.42,-8.86 25.31,-8.86 6.26,0 9.39,2.31 9.39,6.92 0,3.59 -1.07,7.11 -3.21,10.55 -1.74,2.33 -3.51,4.69 -5.31,7.06 -0.92,1.22 -4.03,4.98 -9.32,11.29 -4.02,4.8 -6.79,8.61 -8.29,11.42 -2.62,4.86 -4.18,7.28 -4.66,7.28 -0.15,-0.05 -0.22,-0.22 -0.22,-0.51 0,-0.92 0.53,-3.18 1.6,-6.77 2.62,-8.63 9.49,-18.78 20.6,-30.42 -1.02,-1.12 -2.69,-1.68 -5.02,-1.68 -4.27,0 -10.64,2.61 -20.87,6.83zm-13.54 -11.27c-3.4,-4.56 -6.51,-6.84 -9.32,-6.84 -4.27,0 -6.41,1.17 -6.41,3.5 0,2.71 2.96,4.07 8.88,4.07 2.14,0 4.42,-0.24 6.85,-0.73z"/>
   <path class="fil2" d="M367.69 209.93c-2.48,-1.79 -6.99,-2.69 -13.54,-2.69 -2.77,0 -5.34,0.24 -7.72,0.72 4.37,2.92 7.74,5.71 10.12,8.38 2.47,-1.6 6.19,-3.74 11.14,-6.41zm67.58 34.17c-6.3,0 -10.7,-1.89 -13.17,-5.68 -1.5,-2.38 -2.36,-5.9 -2.55,-10.55 -0.05,-0.54 -0.29,-0.8 -0.73,-0.8 -0.77,0 -1.55,0.46 -2.33,1.38 -4.85,5.63 -7.98,9.05 -9.38,10.26 -6.17,5.29 -12.76,7.69 -19.55,7.69 -11.31,0 -22.59,-4.98 -33.85,-14.93 -9.66,6.85 -16.83,13.64 -21.54,20.39 8.78,1.06 23.51,1.96 44.18,2.69 15.33,0.58 25.01,1.74 29.04,3.46 4.03,1.72 7.33,4.57 9.9,8.55 2.81,4.46 4.22,9.61 4.22,15.43 0,15.63 -6.57,29.7 -19.72,42.22 -12.96,12.27 -27.28,18.41 -42.95,18.41 -28.24,0 -42.36,-15.62 -42.36,-46.87 0,-14.61 3.15,-28.49 9.46,-41.64 -2.38,-1.4 -3.57,-2.45 -3.57,-3.13 0,-0.43 0.59,-0.65 1.75,-0.65 0.97,0 2.23,0.14 3.79,0.44 2.32,-4.66 6.28,-10.29 11.86,-16.89 4.17,-4.95 7.16,-8.2 8.95,-9.76 -3.54,-3.63 -7.25,-6.67 -11.13,-9.09 -3.5,-2.19 -6.07,-3.28 -7.72,-3.28 -1.84,0 -4.68,1.16 -8.51,3.49 -0.63,0.39 -1.15,0.59 -1.53,0.59 -0.83,0 -0.97,-0.88 -0.44,-2.63l3.35 -10.91c0.68,-2.19 4.51,-4.43 11.5,-6.73 6.99,-2.31 13.68,-3.46 20.09,-3.46 7.37,0 14.31,0.89 20.82,2.69 5.48,1.55 9.6,3.37 12.37,5.46 2.18,1.65 2.86,3.42 2.04,5.31 -0.92,2.96 -2.38,6.22 -4.37,9.76 -3.74,1.69 -9.68,4.66 -17.83,8.88 1.94,2.04 5.09,3.82 9.46,5.35 4.37,1.53 8.61,2.29 12.74,2.29 7.13,0 13.48,-1.62 18.82,-5.36 2.13,-1.5 6.96,-6.01 14.48,-13.53 0.92,-0.93 1.8,-1.39 2.62,-1.39 1.31,0 1.68,0.88 1.09,2.62 -0.58,1.75 -0.87,3.38 -0.87,4.88 0,3.35 1.38,5.94 4.15,7.79 2.62,1.75 6.02,2.62 10.19,2.62 6.02,0 10.99,-2.52 14.92,-7.57 2.48,-3.78 4.95,-7.59 7.43,-11.43 0.87,-0.97 1.6,-1.46 2.18,-1.46 0.68,0 1.02,0.54 1.02,1.61 0,0.43 -0.07,0.92 -0.22,1.46 -0.97,4.12 -1.46,5.98 -1.46,5.6 0,1.75 1,3.44 2.99,5.09 2.14,1.8 4.54,2.7 7.21,2.7 3.25,0 5.38,-0.88 6.4,-2.62 0,-0.34 -0.46,-0.95 -1.38,-1.82 -0.92,-0.88 -1.39,-1.53 -1.39,-1.97 0,-0.58 1.02,-4 3.06,-10.26 0.34,-1.07 0.71,-1.6 1.09,-1.6 0.93,0 1.85,1.31 2.77,3.93 0.78,2.28 1.16,4 1.16,5.16 0,6.07 -1.19,11.19 -3.56,15.36 -2.96,5.2 -7.33,7.79 -13.11,7.79 -4.07,0 -7.88,-3.13 -11.42,-9.39 -5.19,9.37 -12.01,14.05 -20.46,14.05zm-19.54 45.03c0,-3.94 -1.39,-7.65 -4.15,-11.14 -3.11,-3.89 -7.31,-6.58 -12.6,-8.08 -4.56,-1.31 -12.2,-2.11 -22.92,-2.41 -11.21,-0.29 -18.83,-0.89 -22.86,-1.81 -9.22,-2.14 -17.18,-5.05 -23.87,-8.74 -6.7,13.39 -10.05,25.28 -10.05,35.67 0,23.63 13.27,35.45 39.82,35.45 8.83,0 17.88,-2.36 27.15,-7.06 8.29,-4.23 15.28,-9.44 20.96,-15.65 5.68,-6.22 8.52,-11.63 8.52,-16.23z"/>
   <path class="fil2" d="M273.48 286.58l-0.59 0.23c0,2.82 -0.63,6.31 -1.89,10.49 -1.75,5.53 -4.18,10.04 -7.28,13.53 -6.12,6.99 -16.94,14.9 -32.46,23.73 -13.69,7.77 -21.74,11.65 -24.17,11.65 -0.58,0 -7.62,1.65 -21.11,4.95 -14.36,3.49 -23.34,5.53 -26.93,6.11 -3.88,0.59 -6.26,0.88 -7.13,0.88 -0.39,0 -0.63,-0.05 -0.73,-0.15 0,-0.39 2.67,-1.74 8,-4.07 1.85,-0.88 12.91,-5.63 33.2,-14.27 13.97,-6.02 25.67,-11.5 35.08,-16.45 26.59,-14.37 39.89,-24.46 39.89,-30.28 0,-1.65 -0.34,-3.3 -1.02,-4.95 -2.91,0.97 -7.04,1.46 -12.37,1.46 -11.46,0 -17.18,-3.89 -17.18,-11.65 0,-6.02 1.94,-11.31 5.82,-15.87 3.59,-4.27 7.33,-6.4 11.21,-6.4 3.11,0 6.41,1.89 9.9,5.67 3.1,3.3 5.87,7.52 8.3,12.67 0.18,0 0.67,-0.13 1.46,-0.39 13.58,-5.58 22.32,-8.86 26.2,-8.86 6.26,0 9.39,2.31 9.39,6.92 0,3.59 -1.07,7.11 -3.2,10.55 -1.75,2.33 -3.52,4.69 -5.32,7.06 -0.92,1.22 -4.02,4.98 -9.31,11.29 -4.03,4.8 -6.8,8.61 -8.3,11.42 -2.62,4.86 -4.17,7.28 -4.66,7.28 -0.14,-0.05 -0.22,-0.22 -0.22,-0.51 0,-0.92 0.53,-3.17 1.6,-6.77 2.62,-8.63 9.49,-18.78 20.6,-30.42 -1.02,-1.12 -2.69,-1.68 -5.02,-1.68 -4.27,0 -11.53,2.61 -21.76,6.83zm-13.55 -11.27c-3.39,-4.56 -6.5,-6.84 -9.31,-6.84 -4.27,0 -6.41,1.17 -6.41,3.5 0,2.71 2.96,4.07 8.88,4.07 2.14,0 4.42,-0.24 6.84,-0.73z"/>
   <path class="fil2" d="M221.82 293.04c-0.65,6.55 -2.61,11.69 -5.88,15.43 -6.4,7.47 -15.82,14.7 -28.24,21.69 -15.72,8.73 -30.38,13.1 -43.96,13.1 -18.25,0 -30.82,-8.93 -37.71,-26.78 -1.33,-3.44 -2.01,-7.82 -2.04,-13.14l0 -0.26 0 -0.17 0 -0.17c0.02,-3.48 0.31,-7 0.88,-10.58 0.87,-5.43 2.08,-10.19 3.64,-14.26 0.48,-1.26 0.97,-1.9 1.45,-1.9 0.49,0 0.59,0.83 0.29,2.48 -0.58,2.52 -1.16,5.05 -1.74,7.57 -0.97,4.46 -1.46,7.76 -1.46,9.9 0,7.37 2.48,14.17 7.43,20.38 6.69,8.25 16.4,12.37 29.11,12.37 11.16,0 23,-2.62 35.52,-7.86 10.1,-4.17 19.17,-9.41 27.23,-15.72 7.27,-5.63 10.91,-9.66 10.91,-12.08 0,-0.39 -1.5,-3.55 -4.51,-9.47 -3.59,-6.98 -6.26,-13.78 -8.01,-20.38 -0.67,-2.23 -1.48,-3.73 -2.4,-4.51 -0.92,-0.78 -1.38,-1.6 -1.38,-2.47 0,-0.68 0.68,-4.27 2.04,-10.78 0.19,-1.16 0.48,-1.74 0.87,-1.74 0.39,0 0.87,0.29 1.45,0.87 1.85,2.04 5.83,6.07 11.94,12.08 0.97,0.97 1.46,1.75 1.46,2.33 0,0.68 -0.58,1.02 -1.75,1.02 -1.26,0 -3.15,-0.39 -5.67,-1.17 0.19,0.78 2.23,5.05 6.11,12.82 2.4,4.87 3.87,9.23 4.42,13.06l0 8.34z"/>
   <path class="fil2" d="M447.3 190.74l2.44 -5.02c0.19,-0.38 0.39,-0.57 0.62,-0.57 0.32,0 1.69,0.83 4.11,2.48 2.42,1.66 3.63,2.63 3.63,2.92 0,1.08 -1.06,3.35 -3.2,6.79 -0.25,0.41 -0.53,0.53 -0.81,0.34 -2.11,-1.57 -4.48,-3.21 -7.13,-4.93 -0.89,2.01 -1.77,3.71 -2.63,5.12 -0.25,0.44 -0.52,0.56 -0.81,0.33 -2.39,-1.82 -4.86,-3.52 -7.41,-5.11 -0.13,-0.1 -0.13,-0.29 0,-0.58l3.06 -6.26c0.19,-0.39 0.4,-0.58 0.62,-0.58 0.29,0 1.45,0.69 3.49,2.06 2.04,1.37 3.38,2.37 4.02,3.01zm-8.61 -9.75c-0.13,-0.1 -0.13,-0.29 0,-0.58l3.06 -6.26c0.19,-0.38 0.4,-0.57 0.62,-0.57 0.32,0 1.69,0.82 4.12,2.48 2.42,1.66 3.63,2.63 3.63,2.92 0,1.08 -1.07,3.35 -3.21,6.79 -0.25,0.44 -0.52,0.56 -0.81,0.33 -2.39,-1.81 -4.86,-3.52 -7.41,-5.11z"/>
   <path class="fil2" d="M270.85 247.5c-0.19,-0.14 -0.19,-0.43 0,-0.87l4.66 -9.53c0.29,-0.59 0.6,-0.88 0.95,-0.88 0.48,0 2.57,1.26 6.25,3.79 3.69,2.52 5.54,4 5.54,4.44 0,1.65 -1.63,5.09 -4.88,10.33 -0.39,0.68 -0.8,0.85 -1.24,0.51 -3.64,-2.76 -7.4,-5.36 -11.28,-7.79z"/>
   <path class="fil2" d="M144.51 269.98c-0.2,-0.15 -0.2,-0.44 0,-0.87l4.65 -9.54c0.3,-0.58 0.61,-0.87 0.95,-0.87 0.49,0 2.57,1.26 6.26,3.78 3.69,2.53 5.53,4.01 5.53,4.44 0,1.65 -1.62,5.1 -4.87,10.34 -0.39,0.68 -0.81,0.85 -1.24,0.51 -3.64,-2.77 -7.4,-5.36 -11.28,-7.79z"/>
   <path class="fil2" d="M487.3 337.57l2.57 -5.28c0.2,-0.4 0.42,-0.6 0.65,-0.6 0.34,0 1.78,0.87 4.33,2.62 2.54,1.74 3.82,2.76 3.82,3.06 0,1.14 -1.13,3.52 -3.37,7.14 -0.27,0.44 -0.56,0.56 -0.86,0.36 -2.21,-1.65 -4.71,-3.37 -7.49,-5.18 -0.94,2.11 -1.86,3.9 -2.77,5.38 -0.26,0.47 -0.55,0.58 -0.85,0.35 -2.51,-1.91 -5.11,-3.71 -7.79,-5.38 -0.14,-0.1 -0.14,-0.3 0,-0.6l3.21 -6.59c0.2,-0.41 0.42,-0.61 0.66,-0.61 0.3,0 1.52,0.72 3.67,2.17 2.14,1.44 3.55,2.49 4.22,3.16z"/>
   <path class="fil2" d="M305.73 340.35l-0.06 -0.06c-2.35,0.21 -3.75,-0.01 -4.2,-0.64 0.08,1.75 0.12,2.77 0.12,3.08 0,1.67 -0.69,4.22 -2.1,7.66 -2.3,3.69 -6.67,6.86 -13.09,9.52 -6.43,2.64 -11.9,4.17 -16.41,4.56 -4.53,0.39 -8.06,-0.5 -10.6,-2.69 -2.55,-2.18 -4.18,-4.73 -4.91,-7.67 -0.73,-2.93 -0.85,-6.22 -0.37,-9.87 0.49,-3.63 1.98,-7.11 4.49,-10.4l0.13 0c0.16,0.02 0.24,0.1 0.24,0.24l0 0.37c-2.43,4.84 -3.62,8.85 -3.55,12.04 0.06,3.17 1.25,6.13 3.57,8.85 2.31,2.73 6.33,3.96 12.04,3.68 5.71,-0.27 13.1,-2.78 22.16,-7.51 3.77,-2.31 5.96,-4.37 6.55,-6.18 0,-2.1 -1.52,-6.26 -4.57,-12.48l0 -0.25c0.63,-2.22 1.17,-3.58 1.6,-4.08 1.53,2.77 2.44,4.28 2.72,4.58 1.71,1.56 3.79,2.33 6.24,2.31l0 4.94zm-28.04 0.62l-4.14 -3.9 3.59 -3.82 4.13 3.86 -3.58 3.86zm27.54 -5.63c2.58,-0.37 5.03,-1.22 7.36,-2.56 -0.37,-1.32 -1.44,-3.2 -3.19,-5.66l1.8 -4.54c1.49,2.49 2.4,4.66 2.72,6.5 0.3,1.85 0.09,3.83 -0.64,5.96 -0.73,2.12 -3.41,3.89 -8.05,5.31l0 -5.01zm6.4 7.97l3.73 3.09c0.08,0.09 0.13,0.16 0.13,0.25 0,0.08 -0.04,0.16 -0.1,0.25l-2.5 3.12c-0.06,0.12 -0.14,0.19 -0.24,0.19 -0.06,0 -0.14,-0.04 -0.22,-0.13l-3.76 -3.09c-0.09,-0.08 -0.13,-0.17 -0.13,-0.25 0,-0.08 0.04,-0.17 0.13,-0.27l2.49 -3.09c0.09,-0.09 0.17,-0.13 0.25,-0.13 0.08,0 0.16,0.02 0.22,0.06z"/>
   <path class="fil2" d="M363.28 309.72c3.84,0 8,-0.66 12.46,-1.98 1.24,-0.35 1.86,-0.45 1.86,-0.29 0,0.16 -0.47,0.64 -1.4,1.45 -3.88,3.5 -8.86,5.24 -14.95,5.24 -1.9,0 -3.46,-0.49 -4.66,-1.48 -1.2,-0.99 -1.8,-2.24 -1.8,-3.76 0,-4.03 1.73,-8.26 5.18,-12.68 -3.03,-0.89 -4.54,-2.48 -4.54,-4.77 0,-1.94 1.21,-4.27 3.64,-6.99 2.42,-2.71 4.37,-4.07 5.84,-4.07 0.39,0 0.79,0.31 1.2,0.93 0.4,0.62 0.61,1.28 0.61,1.98 0,0.31 -0.41,1.05 -1.22,2.21 -0.82,1.17 -1.26,1.63 -1.34,1.4 -0.31,-1.2 -0.99,-1.81 -2.04,-1.81 -0.54,0 -1.21,0.47 -2.01,1.4 -0.79,0.93 -1.19,1.71 -1.19,2.33 0.97,1.59 2.62,2.38 4.95,2.38 0.77,0 2,-0.71 3.66,-2.15 0.97,-0.89 1.96,-1.8 2.97,-2.73 0.35,-0.28 0.52,0 0.52,0.81 0,1.79 -0.66,3.59 -1.97,5.41 -5.13,3.46 -8.93,7.43 -11.41,11.93 -0.47,0.86 -0.7,1.61 -0.7,2.27 0,1.98 2.12,2.97 6.34,2.97z"/>
   <path class="fil2" d="M290.32 200.77c-0.08,1.05 -0.5,2.02 -1.31,2.92 -0.81,0.92 -1.43,1.2 -1.86,0.81 -0.68,-0.63 -1.96,-1.95 -3.85,-3.99 -3.57,3.04 -9.79,6.35 -18.66,9.87 -8.87,3.53 -14.4,4.87 -16.59,4.03 -0.45,-0.16 -0.68,-0.46 -0.71,-0.86 5.45,-2.02 10.91,-4 16.4,-5.95 9.16,-3.4 15,-6.36 17.57,-8.84 -1.02,-1.39 -2.06,-2.76 -3.11,-4.16 -0.83,-1.57 -0.87,-3.33 -0.12,-5.3 0.43,-1.09 1.84,-2.39 4.24,-3.95 2.42,-1.53 4.21,-2.09 5.34,-1.65 3.35,1.29 4.25,3.91 2.73,7.9 -0.62,1.62 -1.63,3.19 -3.02,4.71 0.99,1.14 1.97,2.64 2.95,4.46zm-4.95 -5.86c0.36,-0.48 0.66,-1.02 0.89,-1.63 1,-2.61 0.71,-4.22 -0.89,-4.83 -1.27,-0.48 -2.2,-0.16 -2.77,0.96 -0.54,0.94 0.38,2.76 2.77,5.5zm-7.87 19.7c1.88,-4.25 5.86,-8.51 11.98,-12.82l0.33 -0.03c0.19,0.09 0.24,0.21 0.2,0.34 -4.99,4.37 -8.01,7.67 -9,9.92 -0.07,-0.04 -0.26,0.24 -0.57,0.83 -1.21,2.79 -0.82,5.06 1.17,6.84l0.37 0.19c1.41,0.62 2.81,0.34 4.2,-0.84 0.31,-0.26 0.54,-0.32 0.7,-0.24l0.08 0.04c0.16,0.07 0.25,0.23 0.26,0.49 -2.63,4.14 -5.16,5.67 -7.58,4.64l-0.57 -0.21c-2.78,-2.12 -3.32,-5.18 -1.57,-9.15z"/>
   <path class="fil2" d="M389.21 173.52c23.86,-8.86 48.79,-18.1 74.8,-27.72 1.01,-0.38 1.61,-0.51 1.8,-0.38 0.25,0.19 0.19,0.73 -0.19,1.61 -1.14,2.79 -2.06,4.46 -2.76,5.03 -21.53,7.93 -46.76,17.74 -75.68,29.42l0 -3.34c0.55,-1.48 1.23,-3.02 2.03,-4.62z"/>
   <path class="fil2" d="M509.09 243.36c0.28,-0.93 0.35,-1.85 0.19,-2.77 -0.19,-1.02 -0.65,-1.53 -1.38,-1.53 -0.35,0 -0.83,0.17 -1.43,0.5 -0.61,0.34 -0.91,0.66 -0.91,0.98 0,0.73 1.18,1.67 3.53,2.82zm-1.81 4.1c-2.96,-1.53 -4.44,-3.13 -4.44,-4.82 0,-2.03 0.94,-3.89 2.82,-5.58 1.87,-1.68 3.43,-2.3 4.67,-1.86 1.05,0.38 1.57,1.51 1.57,3.39 0,1.68 -0.35,3.57 -1.05,5.67 1.5,0.86 2.43,1.59 2.81,2.19 0,0.8 -0.66,2.15 -2,4.06 -0.38,-0.61 -1.28,-1.34 -2.71,-2.2 -1.66,2.29 -3.75,4.38 -6.3,6.25 -2.89,2.13 -5.55,3.74 -7.96,4.81 -0.51,0.26 -3.31,1.32 -8.39,3.2 -0.8,0.29 -1.32,0.43 -1.58,0.43 -0.12,0 -0.19,-0.03 -0.19,-0.1 0,-0.19 0.45,-0.57 1.34,-1.14 3.75,-2.22 7.52,-4.47 11.3,-6.72 4.51,-2.74 7.88,-5.26 10.11,-7.58z"/>
   <path class="fil2" d="M233.02 213.95c0,0.59 -0.76,1.95 -2.27,4.06 -1.7,2.36 -3.32,4.1 -4.86,5.2 -0.99,0.69 -4.26,1.77 -9.81,3.24 -0.81,0.2 -1.28,0.3 -1.43,0.29l0 -0.07c0.13,-0.13 0.45,-0.4 0.98,-0.81 0.71,-0.55 2.68,-1.67 5.92,-3.37 3.1,-1.66 4.91,-2.71 5.44,-3.17 0.09,-0.09 0.14,-0.19 0.14,-0.28 0,-0.73 -2.75,-1.1 -8.26,-1.1 -0.03,0 -1.08,0.05 -3.17,0.14 -0.45,0.02 -0.8,0.02 -1.05,-0.01l0 -1.2 1.87 -3.17c0.58,-0.96 1.62,-1.57 3.14,-1.82 0.55,-0.09 1.82,-0.14 3.82,-0.14 6.36,0 9.54,0.74 9.54,2.21z"/>
   <path class="fil2" d="M119.36 266.97c0.21,-0.41 0.42,-0.72 0.62,-0.93 0.21,-0.13 0.31,-0.1 0.31,0.11 0.07,0.2 0.07,0.54 0,1.02 -1.85,10.04 -4.85,15.06 -9.02,15.06 -4.44,0 -6.66,-3.69 -6.66,-11.06 0,-9.09 2.63,-18.62 7.89,-28.59 1.3,-2.46 2.08,-3.72 2.36,-3.79 0.07,0 0.1,0.03 0.1,0.1 0,0.48 -0.38,1.88 -1.13,4.2 -3.41,10.39 -5.12,17.66 -5.12,21.83 0,5.67 1.54,8.5 4.61,8.5 1.78,0 3.79,-2.15 6.04,-6.45z"/>
   <path class="fil2" d="M455.05 260.57c-1.1,0.32 -1.73,0.48 -1.89,0.48 -0.04,0 -0.06,-0.01 -0.06,-0.03 0,-0.06 0.41,-0.34 1.23,-0.83 0.77,-0.42 1.97,-1.25 3.59,-2.49 0.81,-0.79 1.96,-2.06 3.43,-3.79 1.02,-1.2 2.11,-2.23 3.26,-3.08 1.42,-1.04 2.84,-1.56 4.28,-1.56 0.34,0 0.79,0.1 1.34,0.28 0.56,0.19 1.04,0.29 1.44,0.29 0.74,0 1.33,-0.28 1.79,-0.84 0.36,-0.56 0.72,-1.11 1.08,-1.67 0.26,-0.4 0.49,-0.6 0.69,-0.6 0.1,0 0.14,0.09 0.14,0.27 0,0.26 -0.11,0.69 -0.35,1.28 -0.12,0.3 0.58,0.45 2.09,0.45 0.16,0 0.25,-0.04 0.27,-0.12 0.02,-0.04 -0.07,-0.41 -0.27,-1.13 -0.06,-0.2 0.03,-0.49 0.27,-0.87 0.4,-0.68 0.64,-0.98 0.72,-0.9 0.36,0.36 0.53,0.91 0.53,1.65 0,0.62 -0.14,1.33 -0.43,2.15 -0.29,0.82 -0.56,1.32 -0.82,1.5 -0.68,0.45 -1.74,0.33 -3.17,-0.36 -1.2,1.25 -2.37,1.88 -3.53,1.88 -0.34,0 -0.77,-0.09 -1.3,-0.27 -0.53,-0.18 -0.92,-0.27 -1.18,-0.27 -1.97,0 -3.98,0.94 -6.01,2.81 -1.48,1.46 -2.96,2.91 -4.45,4.37 -0.9,0.67 -1.8,1.14 -2.69,1.4z"/>
   <path class="fil2" d="M174.4 199.19c2.57,0 4.87,1.53 6.91,4.57 2.04,3.05 3.48,7.03 4.3,11.94 0.09,0.51 0.14,0.8 0.14,0.89 0.09,0.14 0.16,0.14 0.21,0 0.04,-0.09 0.16,-0.38 0.34,-0.89 0.41,-2.94 1.42,-7.32 3.03,-13.14 1.74,-4.17 3.64,-6.26 5.7,-6.26 1.06,0 2.11,0.71 3.17,2.13 0.92,1.24 1.38,2.25 1.38,3.03 0,0.6 -0.16,1.38 -0.49,2.34 -0.41,1.28 -0.89,1.92 -1.44,1.92 -0.23,0 -0.73,-0.49 -1.51,-1.47 -0.78,-0.99 -1.59,-1.48 -2.41,-1.48 -1.83,0 -3.53,4.33 -5.09,13 -0.69,3.76 -1.45,6.42 -2.27,7.98 -0.6,1.05 -1.1,1.58 -1.52,1.58 -0.36,0 -0.54,-0.48 -0.54,-1.44 0,-1.52 -0.88,-4.46 -2.62,-8.84 -1.74,-4.38 -2.98,-6.57 -3.71,-6.57 -0.51,0 -0.83,0.16 -0.97,0.48 -0.13,0.32 -0.55,0.48 -1.23,0.48 -0.78,0 -1.8,-0.57 -3.07,-1.72 -1.26,-1.15 -1.89,-2.06 -1.89,-2.75 0,-0.32 0.53,-1.37 1.59,-3.13 1.05,-1.77 1.72,-2.65 1.99,-2.65z"/>
   <path class="fil2" d="M143.11 235.05c-0.25,1.16 -0.55,1.78 -0.91,1.85 -0.45,0.08 -0.65,-0.6 -0.6,-2.05 0.04,-1.27 -0.12,-2.87 -0.49,-4.8 -1.19,-6.29 -5.93,-11.89 -14.21,-16.79 -0.53,-0.32 -0.69,-0.8 -0.48,-1.44l1.34 -3.96c0.12,-0.34 0.41,-0.4 0.88,-0.16 7.94,3.85 12.76,10.24 14.46,19.18 0.52,2.79 0.53,5.51 0.01,8.17z"/>
   <path class="fil2" d="M88.54 305.93c0,-1.43 -2.57,-3.58 -7.7,-6.44 -1.58,3.01 -2.37,5.73 -2.37,8.14 0,1.53 0.72,2.3 2.14,2.3 1.29,0 2.77,-0.45 4.45,-1.33 1.68,-0.89 2.84,-1.78 3.48,-2.67zm-5.04 -13.17c5.18,3.79 7.6,7.59 7.26,11.4 -0.35,4.09 -0.92,6.66 -1.7,7.69 -2.28,3.06 -5.09,4.59 -8.45,4.59 -3.25,0 -4.88,-1.97 -4.88,-5.92 0,-0.89 0.1,-1.85 0.3,-2.89 0.54,-3.3 2.09,-7.99 4.66,-14.06 2.17,-5.18 3.26,-9.52 3.26,-13.03 0,-6.96 -3.21,-13.64 -9.63,-20.06 -0.49,-0.49 -0.56,-1.03 -0.22,-1.63l2.22 -3.92c0.2,-0.35 0.52,-0.35 0.97,0 6.41,5.28 9.62,12.85 9.62,22.72 0,4.64 -1.14,9.68 -3.41,15.11z"/>
   <path class="fil2" d="M525.09 303.22c0.87,2.84 0.7,6.42 -0.53,10.75 -1.22,4.52 -3.31,8.69 -6.27,12.52 -0.6,0.78 -1.08,1.37 -1.45,1.77l-0.31 -1.02c0.17,-0.4 0.39,-0.87 0.64,-1.41 4.14,-8.69 5.86,-14.18 5.16,-16.46 -0.67,-2.17 -2,-2.95 -4.01,-2.33 -1.11,0.34 -2.02,0.96 -2.72,1.84 -0.53,0.65 -0.86,1.03 -1.01,1.14 -0.15,-0.08 -0.31,-0.12 -0.5,-0.12 -0.01,-0.25 -0.08,-0.86 -0.2,-1.86 -0.44,-4.97 1.17,-8.03 4.84,-9.16 3.06,-0.94 5.18,0.51 6.36,4.34z"/>
  </g>
 </g>
</svg>
